#N canvas 0 0 1920 976 12;
#X obj 7 7 cnv 19 150 76 empty empty START 5 12 0 12 #ff0400 #404040 0;
#X msg 65 38 \; 1bang bang \;;
#X text 9 91 combinazione1 \; set1-123*123=123 \; set2-123*132=132 \; set3-123*213=213 \; set4-123*231=231 \; set5-123*312=312 \; set6-123*321=321 \;;
#X text 8 192 combinazione2 \; set7-132*123 =132 \; set8-132*132=123 \; set9-132*213=231 \; set10-132*231=213 \; set11-132*312=321 \; set12-132*321=312 \;;
#X text 8 297 cobinazione3 \; set13-213*123=213 \; set14-213*132=312 \; set15-213*213=123 \; set16-213*231=321 \; set17-213*312=132 \; set18-213*321=231 \;;
#X text 6 400 combinazione4 \; set19-231*123=231 \; set20-231*132=321 \; set21-231*213=132 \; set22-231*231=312 \; set23-231*312=123 \; set24-231*321=213 \;;
#X text 5 503 combinazione5 \; set25-312*123=312 \; set26-312*132=213 \; set27-312*213=321 \; set28-312*231=123 \; set29-312*312=231 \; set30-312*321=132 \;;
#X text 6 606 combinazione6 \; set31-321*123=321 \; set32-321*132=231 \; set33-321*213=312 \; set34-321*231=132 \; set35-321*312=213 \; set36-321*321=123 \;;
#X text 6 707 numero totale file: \; 123= 27 \; 132= 23 \; 213=54 \; 231=12 \; 312= 53 \; 321 = 15 tot 184;
#X obj 1641 289 tgl 19 0 empty empty turn\ on/off\ the\ audio\ in\ this\ window 0 -10 0 12 #fcfcfc #000000 #000000 0 1;
#X obj 1641 313 switch~;
#X obj 160 9 cnv 19 1460 115 empty empty combination1 4 12 0 12 #c7c6ff #404040 0;
#X obj 163 30 RAY-abs 1 2 26 26 26 123 123 123;
#X obj 648 30 RAY-abs 2 3 26 22 22 123 132 132;
#X obj 1133 30 RAY-abs 3 4 26 53 53 123 213 213;
#X obj 163 78 RAY-abs 4 5 26 11 11 123 231 231;
#X obj 648 78 RAY-abs 5 6 26 52 52 123 312 312;
#X obj 1133 78 RAY-abs 6 7 26 14 14 123 321 321;
#X obj 160 131 cnv 19 1460 115 empty empty combination2 4 12 0 12 #c6ffc7 #404040 0;
#X obj 163 152 RAY-abs 7 8 23 26 22 132 123 132;
#X obj 648 152 RAY-abs 8 9 22 22 26 132 132 123;
#X obj 163 200 RAY-abs 10 11 22 11 53 132 231 213;
#X obj 648 200 RAY-abs 11 12 22 52 14 132 312 321;
#X obj 1134 200 RAY-abs 12 13 22 14 52 132 321 312;
#X obj 161 251 cnv 19 1460 115 empty empty combination3 2 12 0 12 #c6feff #404040 0;
#X obj 161 373 cnv 19 1460 115 empty empty combination4 4 12 0 12 #ffc7c6 #404040 0;
#X obj 164 272 RAY-abs 13 14 53 26 11 213 123 213;
#X obj 649 272 RAY-abs 14 15 53 22 52 213 132 312;
#X obj 1134 272 RAY-abs 15 16 53 53 26 213 213 123;
#X obj 164 320 RAY-abs 16 17 53 11 14 213 231 321;
#X obj 649 320 RAY-abs 17 18 53 52 22 213 312 132;
#X obj 1134 320 RAY-abs 18 19 53 14 11 213 321 231;
#X obj 164 394 RAY-abs 19 20 11 26 11 231 123 231;
#X obj 649 394 RAY-abs 20 21 11 22 14 231 132 321;
#X obj 1134 394 RAY-abs 21 22 11 53 22 231 213 132;
#X obj 164 442 RAY-abs 22 23 11 11 52 132 132 312;
#X obj 649 442 RAY-abs 23 24 11 52 26 231 312 123;
#X obj 1135 442 RAY-abs 24 25 11 14 53 231 321 213;
#X obj 161 496 cnv 19 1460 115 empty empty combination5 2 12 0 12 #dfdfdf #404040 0;
#X obj 161 618 cnv 19 1460 115 empty empty combination6 4 12 0 12 #e3c6ff #404040 0;
#X obj 164 517 RAY-abs 25 26 52 26 11 312 123 231;
#X obj 649 517 RAY-abs 26 27 52 22 53 312 132 213;
#X obj 1134 517 RAY-abs 27 28 52 53 14 312 213 321;
#X obj 164 565 RAY-abs 28 29 52 11 26 312 231 123;
#X obj 649 565 RAY-abs 29 30 52 52 26 312 312 123;
#X obj 1134 565 RAY-abs 30 31 52 14 22 312 321 132;
#X obj 164 639 RAY-abs 31 32 14 26 14 321 123 321;
#X obj 649 639 RAY-abs 32 33 14 22 11 321 132 231;
#X obj 164 687 RAY-abs 34 35 14 11 22 321 231 132;
#X obj 649 687 RAY-abs 35 36 14 52 53 321 312 213;
#X obj 1134 639 RAY-abs 33 34 14 53 52 321 213 312;
#X obj 1133 152 RAY-abs 9 10 22 53 11 132 213 231;
#X obj 157 740 catch~ GRAN2-OUT-L;
#X obj 423 739 catch~ GRAN2-OUT-R;
#X obj 4 811 vu 15 120 empty empty -1 -8 0 10 #404040 #000000 1 0;
#X msg 1705 90 \; init-1 bang \;;
#X obj 1636 28 loadbang;
#X obj 1636 52 del 1000;
#X msg 1639 217 \; pd dsp \$1, f 10;
#X obj 1639 161 tgl 19 0 empty empty empty 0 -10 0 12 #fcfcfc #000000 #000000 0 1;
#X obj 987 735 GRAN12.IIRAY01;
#X obj 1741 201 metro 5;
#X obj 1742 230 s metro_snapshot;
#X obj 346 831 osc~ 0.1;
#X obj 155 859 *~, f 4;
#X obj 718 813 *~;
#X obj 93 810 vu 15 120 empty empty -1 -8 0 10 #404040 #000000 1 0;
#X obj 51 911 pvu~;
#X obj 50 887 pvu~;
#X obj 718 766 *~ 0.3;
#X obj 902 882 lop~ 8000;
#X obj 881 858 *~ 0.05;
#X obj 892 774 *~ 0.7;
#X obj 902 817 nbx 5 17 -1e+37 1e+37 0 1 empty empty rev\ fb 0 -10 0 8 #fcfcfc #000000 #000000 0.36 256;
#X obj 162 760 PAN 10 0;
#X obj 422 760 PAN 11 1;
#X obj 1639 99 del 200;
#X obj 1735 167 s start;
#X obj 65 14 r start;
#X text 8 45 CLICK->;
#X obj 299 944 dac~;
#X obj 156 831 +~;
#X obj 520 830 +~;
#X obj 718 873 scale~ -1 1 1 0.6;
#X obj 344 870 scale~ -1 1 0.15 0.25;
#X obj 155 883 +~;
#X obj 519 861 *~;
#X obj 520 887 +~;
#X obj 155 907 *~ 3;
#X obj 559 913 *~ 3;
#X obj 887 837 freezeverb 50;
#X obj 197 931 throw~ recL;
#X obj 624 914 throw~ recR;
#X obj 1735 133 del 200;
#X obj 209 881 catch~ filt-out-L;
#X obj 677 737 RAYFILTERS;
#X obj 1135 687 RAY-abs 36 37 14 14 26 321 321 123;
#X obj 307 740 send~ filtL;
#X obj 565 738 send~ filtR;
#X obj 573 888 catch~ filt-out-R;
#X obj 718 790 +~;
#X obj 903 906 *~ 0.01;
#N canvas 128 128 1292 692 reading 0;
#X obj 322 55 catch~ reading-post;
#X obj 29 92 bp~ 2000 30, f 24;
#X obj 264 366 outlet~;
#X obj 322 79 *~ 0.4;
#X obj 43 190 bp~ 1500 30, f 24;
#X obj 155 288 *~ 20;
#X connect 0 0 1 0;
#X connect 0 0 3 0;
#X connect 1 0 4 0;
#X connect 3 0 2 0;
#X connect 4 0 5 0;
#X connect 5 0 2 0;
#X restore 785 748 pd reading post-filtered;
#X text 1492 794 "Radiant Ternary language" (2023) is a generative-combinatory composition by Stefano Zorzanello \, following some suggestions by Lucio Saffaro (Linguaggi Necessari \, Parol n.5 \, Bologna Marzo 1989).;
#X connect 9 0 10 0;
#X connect 52 0 74 0;
#X connect 52 0 97 0;
#X connect 53 0 75 0;
#X connect 53 0 98 0;
#X connect 56 0 57 0;
#X connect 56 0 9 0;
#X connect 57 0 55 0;
#X connect 57 0 76 0;
#X connect 59 0 58 0;
#X connect 59 0 61 0;
#X connect 61 0 62 0;
#X connect 63 0 83 0;
#X connect 63 0 84 0;
#X connect 64 0 85 0;
#X connect 65 0 87 1;
#X connect 65 0 85 1;
#X connect 67 0 54 0;
#X connect 68 0 66 0;
#X connect 69 0 100 0;
#X connect 70 0 101 0;
#X connect 71 0 70 0;
#X connect 72 0 90 0;
#X connect 73 0 90 0;
#X connect 74 0 81 0;
#X connect 74 1 82 0;
#X connect 75 0 81 1;
#X connect 75 1 82 1;
#X connect 76 0 59 0;
#X connect 76 0 93 0;
#X connect 78 0 1 0;
#X connect 81 0 64 0;
#X connect 82 0 86 0;
#X connect 83 0 65 1;
#X connect 84 0 86 1;
#X connect 84 0 64 1;
#X connect 85 0 88 0;
#X connect 86 0 87 0;
#X connect 87 0 89 0;
#X connect 88 0 67 0;
#X connect 88 0 91 0;
#X connect 88 0 80 0;
#X connect 89 0 68 0;
#X connect 89 0 92 0;
#X connect 89 0 80 1;
#X connect 90 0 71 0;
#X connect 93 0 77 0;
#X connect 94 0 74 0;
#X connect 99 0 75 0;
#X connect 100 0 65 0;
#X connect 101 0 100 1;
#X connect 102 0 69 0;
