#N canvas 154 113 1355 595 12;
#X obj 27 81 inlet~;
#X floatatom 263 274 5 0 0 0 - - -;
#X floatatom 546 98 5 0 0 0 - - -;
#X obj 263 236 expr (($f1 - $f3) / $f2) - $f1 + $f3;
#X floatatom 404 140 5 0 0 0 - - -;
#X obj 403 2 loadbang;
#X obj 228 137 env~ 1024;
#X floatatom 263 212 5 0 0 0 - - -;
#X obj 263 359 dbtorms;
#X floatatom 263 393 12 0 0 0 - - -;
#X floatatom 263 335 5 0 0 0 - - -;
#X obj 263 308 expr 100 + $f1;
#X obj 27 545 outlet~;
#X obj 13 511 *~;
#X obj 47 491 line~;
#X msg 47 467 \$1 20;
#X floatatom 27 190 5 0 0 0 - - -;
#X text 97 466 attack: 20 ms;
#X obj 228 188 moses;
#X floatatom 228 163 5 0 0 0 - - -;
#X msg 228 360 1;
#X obj 228 213 bng 15 250 50 0 empty empty empty 0 -6 0 8 -262144 -1
-1;
#X msg 73 423 \$1 20;
#X text 123 423 release: 20 ms;
#X text 27 16 3.9.1.1. Limiter 3;
#X text 25 47 signal to be limited;
#X text 451 131 limit factor;
#X text 590 74 threshold / reference;
#X text 74 189 forward control;
#X text 310 275 value by which the signal must be reduced;
#X text 389 345 conversion;
#X text 367 386 correction factor of the input signal's rms value;
#X text 453 504 www.pd-tutorial.com;
#X text 462 479 Johannes Kreidler;
#X msg 322 60 23.22;
#X obj 148 237 pvu~;
#X obj 149 270 vu 15 120 empty empty -1 -8 0 10 -66577 -1 1 0;
#X msg 404 106 30;
#X msg 549 45 88;
#X obj 29 228 delread~ comp7;
#X obj 26 142 delwrite~ comp7 100;
#X connect 0 0 6 0;
#X connect 0 0 40 0;
#X connect 1 0 11 0;
#X connect 2 0 3 2;
#X connect 2 0 18 1;
#X connect 3 0 1 0;
#X connect 4 0 3 1;
#X connect 5 0 37 0;
#X connect 5 0 38 0;
#X connect 5 0 34 0;
#X connect 6 0 19 0;
#X connect 7 0 3 0;
#X connect 8 0 9 0;
#X connect 9 0 15 0;
#X connect 10 0 8 0;
#X connect 11 0 10 0;
#X connect 13 0 12 0;
#X connect 13 0 35 0;
#X connect 14 0 13 1;
#X connect 15 0 14 0;
#X connect 16 0 39 0;
#X connect 18 0 21 0;
#X connect 18 1 7 0;
#X connect 19 0 18 0;
#X connect 20 0 22 0;
#X connect 21 0 20 0;
#X connect 22 0 14 0;
#X connect 34 0 16 0;
#X connect 35 0 36 0;
#X connect 37 0 4 0;
#X connect 38 0 2 0;
#X connect 39 0 13 0;
